<?xml version="1.0" encoding="UTF-8" standalone="no"?>
<!DOCTYPE svg PUBLIC "-//W3C//DTD SVG 1.1//EN" "http://www.w3.org/Graphics/SVG/1.1/DTD/svg11.dtd">
<svg width="100%" height="100%" viewBox="0 0 52 52" version="1.1" xmlns="http://www.w3.org/2000/svg" xmlns:xlink="http://www.w3.org/1999/xlink" xml:space="preserve" style="fill-rule:evenodd;clip-rule:evenodd;stroke-linejoin:round;stroke-miterlimit:1.41421;">
    <g transform="matrix(0.330087,0,0,0.330087,17.4177,17.4177)">
        <g transform="matrix(1,0,0,1,-196.346,-300.517)">
            <path d="M235.057,338.886C237.174,341.124 238.576,343.956 239.046,347.084C239.105,347.478 239.136,347.871 239.164,348.265C250.166,349.231 258.797,358.455 258.797,369.707C258.797,381.602 249.155,391.242 237.259,391.242C225.364,391.242 215.721,381.602 215.721,369.707C215.721,367.309 216.13,365.01 216.853,362.856C216.172,362.496 215.513,362.087 214.883,361.621L196.936,347.271L185.592,338.886L167.866,338.886L167.866,400.524L298.968,400.524L298.968,338.886L235.057,338.886Z" style="fill:rgb(225,227,228);fill-rule:nonzero;"/>
        </g>
        <g transform="matrix(1,0,0,1,-196.346,-300.517)">
            <path d="M259.938,308.934L241.282,284.86C240.402,283.728 239.341,282.823 238.176,282.135C238.111,282.094 238.047,282.052 237.98,282.012C237.959,282 237.937,281.989 237.915,281.976C236.721,281.276 235.377,280.784 233.922,280.572C233.922,280.572 207.352,276.595 202.082,272.648L175.196,252.51L145.723,292.359L173.068,311.071C170.493,322.834 176.808,327.529 182.406,331.664L199.323,344.169L217.267,358.518C219.174,359.926 221.504,360.695 223.942,360.695C227.584,360.695 230.915,359.017 233.076,356.092C234.88,353.653 235.625,350.661 235.174,347.664C234.726,344.666 233.135,342.023 230.697,340.22L210.991,325.041C206.81,321.34 206.043,315.017 209.427,310.439C212.929,305.697 219.534,304.648 224.352,307.961L238.705,319.448L234.158,334.972L257.172,334.972L261.798,319.18C262.056,318.291 262.185,317.397 262.219,316.512C262.412,313.884 261.683,311.179 259.938,308.934" style="fill:rgb(225,227,228);fill-rule:nonzero;"/>
        </g>
    </g>
</svg>
