<?xml version="1.0" encoding="UTF-8" standalone="no"?>
<!DOCTYPE svg PUBLIC "-//W3C//DTD SVG 1.1//EN" "http://www.w3.org/Graphics/SVG/1.1/DTD/svg11.dtd">
<svg width="100%" height="100%" viewBox="0 0 111 83" version="1.1" xmlns="http://www.w3.org/2000/svg" xmlns:xlink="http://www.w3.org/1999/xlink" xml:space="preserve" style="fill-rule:evenodd;clip-rule:evenodd;stroke-miterlimit:10;">
    <g transform="matrix(1,0,0,1,-37079.8,-12100.9)">
        <g transform="matrix(0.726929,0,0,0.726929,7029.51,3771.03)">
            <g id="XMLID_7_" transform="matrix(1,0,0,1,41345.2,11447)">
                <path d="M36.381,45.435L14.864,78.336L14.93,78.402L15.055,78.523L15.187,78.645L15.34,78.783L15.507,78.929L15.676,79.075L15.856,79.224L16.04,79.373L16.252,79.536L16.357,79.618L16.454,79.69L16.559,79.767L16.796,79.937L16.907,80.015L17.034,80.101L17.158,80.186L17.279,80.266L17.415,80.355L17.538,80.435L17.679,80.522L17.817,80.608L18.103,80.78L18.244,80.863L18.394,80.949L18.55,81.036L18.705,81.122L18.865,81.209L19.029,81.296L19.194,81.382L19.36,81.467L19.529,81.552L19.7,81.635L20.066,81.808L20.242,81.889L20.431,81.972L20.627,82.058L20.819,82.141L21.014,82.222L21.209,82.302L21.413,82.382L21.626,82.465L21.832,82.543L22.045,82.621L22.27,82.701L22.484,82.777L22.703,82.851L22.935,82.927L23.168,83.003L23.397,83.074L23.634,83.146L23.876,83.217L24.119,83.286L24.371,83.354L24.622,83.421L24.875,83.486L25.136,83.551L25.404,83.615L25.666,83.676L25.931,83.735L26.206,83.793L26.489,83.85L26.772,83.906L27.051,83.959L27.341,84.009L27.637,84.06L27.932,84.108L28.232,84.154L28.538,84.198L28.843,84.24L29.155,84.28L29.474,84.319L29.793,84.355L30.117,84.389L30.441,84.42L30.777,84.449L31.112,84.477L31.452,84.501L31.799,84.524L32.144,84.543L32.498,84.56L32.855,84.576L33.215,84.588L33.578,84.598L33.948,84.604L34.322,84.609L34.703,84.61L34.693,88.39L34.291,88.389L33.891,88.384L33.494,88.377L33.099,88.366L32.711,88.353L32.326,88.337L31.948,88.318L31.569,88.297L31.191,88.272L30.824,88.246L30.46,88.216L30.097,88.184L29.74,88.15L29.382,88.113L29.035,88.073L28.689,88.032L28.344,87.987L28.009,87.941L27.675,87.893L27.343,87.842L27.016,87.789L26.697,87.734L26.373,87.677L26.054,87.617L25.747,87.557L25.441,87.494L25.135,87.43L24.827,87.362L24.533,87.293L24.246,87.224L23.951,87.152L23.665,87.078L23.386,87.004L23.107,86.928L22.828,86.849L22.556,86.769L22.288,86.688L22.021,86.604L21.765,86.522L21.509,86.438L21.248,86.35L20.999,86.261L20.761,86.176L20.511,86.085L20.27,85.993L20.038,85.903L19.803,85.811L19.569,85.715L19.343,85.62L19.123,85.526L18.906,85.431L18.691,85.336L18.471,85.235L18.267,85.139L18.062,85.042L17.854,84.94L17.653,84.84L17.457,84.739L17.268,84.64L17.079,84.54L16.893,84.439L16.712,84.34L16.531,84.238L16.352,84.136L16.174,84.031L16.008,83.932L15.837,83.829L15.68,83.73L15.517,83.63L15.354,83.524L15.204,83.426L15.047,83.322L14.901,83.222L14.759,83.125L14.609,83.02L14.475,82.924L14.341,82.828L14.202,82.726L14.063,82.622L13.94,82.527L13.831,82.443L13.698,82.34L13.574,82.24L13.461,82.148L13.237,81.963L13.027,81.782L12.832,81.611L12.64,81.439L12.452,81.264L12.282,81.099L12.131,80.949L11.977,80.794L11.838,80.646L11.719,80.519L11.596,80.384L11.499,80.272L11.401,80.162L11.303,80.043L11.229,79.952L11.147,79.85L11.054,79.723L11,79.652L10.203,78.557L33.217,43.366L36.381,45.435Z" style="fill:white;"/>
            </g>
            <g id="XMLID_6_" transform="matrix(1,0,0,1,41345.2,11447)">
                <path d="M106.09,43.839L128.628,78.459L127.953,79.583L127.841,79.731L127.739,79.866L127.66,79.963L127.605,80.03L127.518,80.14L127.399,80.276L127.297,80.39L127.181,80.518L127.055,80.653L126.922,80.793L126.778,80.941L126.613,81.105L126.437,81.272L126.264,81.433L126.08,81.601L125.875,81.784L125.657,81.968L125.438,82.15L125.331,82.236L125.201,82.343L125.075,82.437L124.961,82.529L124.812,82.639L124.703,82.72L124.575,82.817L124.428,82.923L124.279,83.03L124.133,83.129L123.997,83.223L123.852,83.321L123.703,83.421L123.537,83.529L123.379,83.629L123.226,83.726L123.058,83.831L122.891,83.931L122.721,84.034L122.55,84.133L122.375,84.236L122.185,84.34L122.016,84.434L121.824,84.541L121.623,84.645L121.436,84.742L121.244,84.84L121.048,84.939L120.844,85.038L120.632,85.14L120.419,85.238L120.214,85.332L119.994,85.431L119.777,85.525L119.56,85.619L119.331,85.715L119.095,85.812L118.861,85.903L118.635,85.991L118.391,86.085L118.143,86.175L117.899,86.262L117.649,86.351L117.392,86.437L117.136,86.522L116.876,86.605L116.616,86.687L116.344,86.769L116.071,86.849L115.795,86.927L115.514,87.004L115.237,87.078L114.949,87.152L114.656,87.224L114.366,87.293L114.069,87.362L113.764,87.429L113.462,87.494L113.153,87.557L112.842,87.618L112.529,87.677L112.204,87.735L111.881,87.789L111.559,87.841L111.227,87.893L110.894,87.941L110.554,87.988L110.21,88.032L109.862,88.074L109.512,88.113L109.161,88.149L108.803,88.184L108.442,88.216L108.076,88.246L107.702,88.272L107.335,88.296L106.957,88.319L106.575,88.337L106.191,88.353L105.801,88.366L105.406,88.377L105.006,88.384L104.608,88.389L104.205,88.39L104.194,84.61L104.58,84.609L104.95,84.605L105.321,84.598L105.686,84.588L106.046,84.576L106.405,84.56L106.755,84.544L107.101,84.523L107.448,84.501L107.789,84.477L108.119,84.45L108.454,84.42L108.783,84.388L109.11,84.354L109.428,84.319L109.741,84.281L110.056,84.241L110.366,84.198L110.665,84.155L110.966,84.108L111.266,84.059L111.557,84.01L111.846,83.959L112.128,83.906L112.413,83.85L112.69,83.793L112.965,83.735L113.236,83.675L113.499,83.614L113.768,83.55L114.024,83.487L114.276,83.422L114.531,83.354L114.781,83.286L115.027,83.216L115.267,83.146L115.498,83.076L115.733,83.002L115.968,82.927L116.197,82.851L116.417,82.777L116.634,82.701L116.858,82.62L117.067,82.544L117.272,82.466L117.486,82.382L117.691,82.302L117.885,82.222L118.079,82.141L118.274,82.057L118.469,81.972L118.651,81.89L118.841,81.803L119.022,81.72L119.194,81.637L119.366,81.553L119.536,81.467L119.711,81.379L119.881,81.29L120.037,81.209L120.184,81.128L120.353,81.034L120.503,80.951L120.648,80.866L120.798,80.779L120.939,80.694L121.084,80.607L121.218,80.524L121.358,80.435L121.493,80.35L121.612,80.272L121.737,80.188L121.867,80.1L121.996,80.011L122.116,79.929L122.223,79.853L122.324,79.78L122.435,79.696L122.563,79.601L122.653,79.534L122.758,79.45L122.862,79.372L122.942,79.306L123.046,79.222L123.23,79.07L123.397,78.929L123.549,78.793L123.704,78.652L123.851,78.515L123.977,78.396L124.037,78.336L102.31,44.961L102.31,41.39L36.689,41.39L36.689,43.839L59.227,78.459L58.552,79.583L58.456,79.711L58.359,79.846L58.264,79.963L58.209,80.03L58.121,80.14L58.018,80.258L57.921,80.373L57.803,80.503L57.682,80.639L57.535,80.793L57.391,80.941L57.237,81.095L57.065,81.262L56.881,81.433L56.697,81.601L56.501,81.776L56.288,81.961L56.076,82.136L55.958,82.235L55.822,82.343L55.717,82.425L55.588,82.529L55.453,82.628L55.335,82.72L55.187,82.827L55.068,82.913L54.924,83.02L54.765,83.129L54.641,83.214L54.489,83.32L54.334,83.421L54.185,83.522L54.015,83.629L53.862,83.726L53.704,83.824L53.532,83.931L53.357,84.034L53.191,84.133L53.01,84.236L52.836,84.335L52.647,84.44L52.46,84.541L52.272,84.64L52.076,84.742L51.884,84.84L51.689,84.939L51.484,85.038L51.28,85.137L51.071,85.235L50.859,85.332L50.639,85.431L50.422,85.525L50.198,85.622L49.972,85.715L49.747,85.809L49.506,85.903L49.28,85.991L49.036,86.085L48.788,86.175L48.544,86.262L48.294,86.351L48.038,86.437L47.781,86.522L47.516,86.606L47.252,86.688L46.985,86.769L46.712,86.849L46.439,86.926L46.159,87.004L45.874,87.079L45.589,87.152L45.296,87.224L45.006,87.293L44.71,87.362L44.404,87.429L44.102,87.494L43.793,87.557L43.48,87.618L43.162,87.677L42.839,87.735L42.517,87.789L42.192,87.842L41.855,87.893L41.521,87.941L41.187,87.988L40.839,88.032L40.488,88.074L40.139,88.113L39.787,88.149L39.424,88.184L39.063,88.216L38.693,88.246L38.32,88.272L37.952,88.296L37.569,88.319L37.187,88.337L36.799,88.353L36.409,88.366L36.014,88.377L35.61,88.384L35.207,88.389L34.805,88.39L34.794,84.61L35.179,84.609L35.554,84.605L35.929,84.598L36.294,84.588L36.655,84.576L37.018,84.56L37.369,84.544L37.719,84.523L38.066,84.501L38.407,84.477L38.743,84.45L39.077,84.42L39.411,84.388L39.736,84.354L40.057,84.319L40.374,84.281L40.685,84.241L40.993,84.198L41.3,84.154L41.604,84.108L41.902,84.059L42.193,84.01L42.484,83.958L42.771,83.905L43.053,83.85L43.33,83.793L43.605,83.735L43.877,83.675L44.139,83.614L44.408,83.55L44.665,83.487L44.921,83.421L45.176,83.354L45.418,83.287L45.667,83.216L45.907,83.146L46.143,83.074L46.383,83L46.613,82.927L46.842,82.851L47.062,82.777L47.279,82.701L47.503,82.62L47.712,82.544L47.917,82.466L48.131,82.382L48.33,82.304L48.526,82.222L48.73,82.139L48.919,82.057L49.114,81.972L49.296,81.89L49.478,81.807L49.655,81.724L49.835,81.637L50.006,81.553L50.177,81.467L50.351,81.379L50.512,81.295L50.673,81.209L50.834,81.123L50.984,81.039L51.14,80.951L51.288,80.866L51.434,80.779L51.579,80.694L51.71,80.614L51.854,80.524L51.994,80.435L52.117,80.357L52.243,80.272L52.372,80.188L52.486,80.109L52.628,80.011L52.734,79.938L52.837,79.862L52.965,79.77L53.065,79.696L53.175,79.611L53.279,79.534L53.37,79.462L53.485,79.372L53.568,79.306L53.652,79.235L53.843,79.077L54.006,78.936L54.166,78.793L54.321,78.652L54.458,78.525L54.58,78.406L54.642,78.344L32.909,44.961L32.909,37.61L106.09,37.61L106.09,43.839ZM124.817,77.462L124.817,77.462L124.829,77.447L124.817,77.462Z" style="fill:white;"/>
            </g>
            <g id="XMLID_11_" transform="matrix(1,0,0,1,41345.2,11447)">
                <path d="M105.785,45.431L84.363,78.337L84.419,78.392L84.548,78.514L84.698,78.653L84.848,78.79L85.006,78.929L85.175,79.075L85.355,79.224L85.438,79.291L85.542,79.372L85.647,79.456L85.751,79.536L85.843,79.608L85.944,79.68L86.074,79.776L86.177,79.852L86.299,79.937L86.418,80.023L86.533,80.101L86.646,80.179L86.782,80.266L86.915,80.356L87.041,80.435L87.178,80.522L87.319,80.608L87.456,80.693L87.747,80.863L87.906,80.954L88.057,81.041L88.204,81.122L88.364,81.209L88.52,81.291L88.862,81.467L89.032,81.552L89.21,81.639L89.389,81.725L89.564,81.808L89.741,81.889L89.929,81.972L90.125,82.058L90.312,82.138L90.51,82.22L90.712,82.302L91.125,82.465L91.334,82.543L91.549,82.623L91.763,82.7L91.987,82.777L92.206,82.853L92.434,82.927L92.662,83.001L92.896,83.073L93.137,83.146L93.383,83.218L93.622,83.287L93.869,83.354L94.118,83.42L94.378,83.486L94.638,83.552L94.9,83.614L95.166,83.676L95.436,83.735L95.708,83.793L95.987,83.85L96.268,83.905L96.554,83.959L96.842,84.01L97.136,84.06L97.431,84.108L97.731,84.154L98.035,84.198L98.346,84.24L98.655,84.281L98.972,84.319L99.296,84.355L99.616,84.389L99.944,84.42L100.277,84.45L100.61,84.477L100.955,84.501L101.298,84.524L101.643,84.543L101.997,84.56L102.353,84.576L102.718,84.588L103.081,84.598L103.451,84.604L103.825,84.609L104.206,84.61L104.196,88.39L103.794,88.389L103.394,88.384L102.997,88.377L102.602,88.366L102.21,88.353L101.824,88.337L101.446,88.318L101.067,88.297L100.694,88.272L100.324,88.246L99.957,88.216L99.6,88.184L99.238,88.15L98.885,88.113L98.535,88.073L98.186,88.031L97.847,87.987L97.509,87.941L97.174,87.893L96.842,87.842L96.514,87.789L96.193,87.734L95.876,87.677L95.555,87.617L95.246,87.557L94.937,87.494L94.635,87.429L94.333,87.363L94.035,87.294L93.741,87.224L93.454,87.152L93.167,87.079L92.885,87.004L92.602,86.926L92.327,86.848L92.059,86.769L91.796,86.69L91.524,86.606L91.264,86.522L91.003,86.436L90.751,86.35L90.503,86.263L90.254,86.174L90.014,86.085L89.768,85.993L89.535,85.901L89.306,85.811L89.078,85.718L88.848,85.623L88.621,85.526L88.405,85.431L88.189,85.336L87.97,85.235L87.758,85.135L87.558,85.038L87.357,84.94L87.156,84.84L86.967,84.743L86.774,84.644L86.577,84.54L86.392,84.439L86.202,84.335L86.025,84.233L85.855,84.136L85.686,84.037L85.507,83.932L85.34,83.829L85.178,83.73L85.021,83.63L84.852,83.524L84.707,83.426L84.556,83.33L84.4,83.222L84.246,83.117L84.112,83.02L83.973,82.924L83.832,82.819L83.718,82.736L83.574,82.631L83.439,82.527L83.316,82.432L83.202,82.341L83.087,82.251L82.96,82.148L82.736,81.963L82.526,81.782L82.322,81.603L82.134,81.431L81.965,81.273L81.79,81.108L81.618,80.938L81.481,80.795L81.348,80.659L81.204,80.504L81.1,80.385L80.996,80.27L80.889,80.143L80.825,80.066L80.722,79.948L80.642,79.839L80.567,79.742L80.424,79.554L79.802,78.415L102.617,43.369L105.785,45.431Z" style="fill:white;"/>
            </g>
            <g id="XMLID_9_" transform="matrix(1,0,0,1,41345.2,11447)">
                <rect x="67.611" y="31" width="3.78" height="75.6" style="fill:white;"/>
            </g>
            <g id="XMLID_10_" transform="matrix(1,0,0,1,41345.2,11447)">
                <rect x="44.202" y="104.709" width="50.5" height="3.78" style="fill:white;"/>
            </g>
            <g id="XMLID_8_" transform="matrix(1,0,0,1,41345.2,11447)">
                <path d="M12.5,78.5L57,78.5C57,78.5 34.7,95 12.5,78.5Z" style="fill:white;fill-rule:nonzero;stroke:white;stroke-width:1px;"/>
            </g>
            <g id="XMLID_13_" transform="matrix(1,0,0,1,41345.2,11447)">
                <path d="M82,78.5L126.5,78.5C126.5,78.5 104.2,95 82,78.5Z" style="fill:white;fill-rule:nonzero;stroke:white;stroke-width:1px;"/>
            </g>
        </g>
    </g>
</svg>
