<?xml version="1.0" encoding="UTF-8" standalone="no"?>
<!DOCTYPE svg PUBLIC "-//W3C//DTD SVG 1.1//EN" "http://www.w3.org/Graphics/SVG/1.1/DTD/svg11.dtd">
<svg width="100%" height="100%" viewBox="0 0 63 55" version="1.1" xmlns="http://www.w3.org/2000/svg" xmlns:xlink="http://www.w3.org/1999/xlink" xml:space="preserve" style="fill-rule:evenodd;clip-rule:evenodd;stroke-linejoin:round;stroke-miterlimit:1.41421;">
    <g transform="matrix(1,0,0,1,-36903.2,-12114.7)">
        <g transform="matrix(1.42231,0,0,1.42231,-23137,-4219.63)">
            <g transform="matrix(1,0,0,1,-63,-64)">
                <path d="M42285,11562L42281,11566C42285.2,11569.4 42290.5,11574.2 42298,11582C42305.9,11566.3 42313.2,11556.3 42320,11551L42319,11548.4C42311.5,11553.1 42303.9,11558.5 42295,11569C42291.5,11566.1 42288.1,11563.6 42285,11562Z" style="fill:rgb(242,242,242);"/>
            </g>
            <path d="M42242.3,11486.7C42243.9,11486.7 42245.4,11487.2 42246.6,11488.1C42246,11488.7 42245.4,11489.2 42244.7,11489.8C42244,11489.4 42243.2,11489.2 42242.3,11489.2L42220.3,11489.2C42217.7,11489.2 42215.6,11491.3 42215.6,11493.8L42215.6,11515.8C42215.6,11518.4 42217.7,11520.5 42220.3,11520.5L42242.3,11520.5C42244.9,11520.5 42247,11518.4 42247,11515.8L42247,11502C42247.8,11500.6 42248.6,11499.3 42249.5,11498L42249.5,11515.8C42249.5,11519.8 42246.3,11523 42242.3,11523L42220.3,11523C42216.3,11523 42213.1,11519.8 42213.1,11515.8L42213.1,11493.8C42213.1,11489.9 42216.3,11486.7 42220.3,11486.7L42242.3,11486.7Z" style="fill:rgb(242,242,242);"/>
        </g>
    </g>
</svg>
