<?xml version="1.0" encoding="UTF-8" standalone="no"?>
<!DOCTYPE svg PUBLIC "-//W3C//DTD SVG 1.1//EN" "http://www.w3.org/Graphics/SVG/1.1/DTD/svg11.dtd">
<svg width="100%" height="100%" viewBox="0 0 39 55" version="1.1" xmlns="http://www.w3.org/2000/svg" xmlns:xlink="http://www.w3.org/1999/xlink" xml:space="preserve" style="fill-rule:evenodd;clip-rule:evenodd;stroke-linejoin:round;stroke-miterlimit:1.41421;">
    <g transform="matrix(1,0,0,1,-36304.7,-12114.7)">
        <g id="document-download" transform="matrix(2.0354,0,0,2.0354,36290.5,12108.6)">
            <path d="M16,25.05L12.75,21.8L12,22.55L16.5,27.05L21,22.55L20.25,21.8L17,25.05L17,14L16,14L16,25.05ZM19.5,3L9.003,3C7.897,3 7,3.898 7,5.007L7,27.993C7,29.101 7.891,30 8.997,30L24.003,30C25.106,30 26,29.102 26,28.009L26,10.5L26,10L20,3L19.5,3ZM19,4L8.996,4C8.446,4 8,4.455 8,4.995L8,28.005C8,28.554 8.455,29 9,29L24,29C24.552,29 25,28.555 25,28.007L25,11L20.998,11C19.894,11 19,10.113 19,8.994L19,4ZM20,4.5L20,8.991C20,9.548 20.451,10 20.997,10L24.7,10L20,4.5Z" style="fill:rgb(238,238,238);"/>
        </g>
    </g>
</svg>
