<?xml version="1.0" encoding="UTF-8" standalone="no"?>
<!DOCTYPE svg PUBLIC "-//W3C//DTD SVG 1.1//EN" "http://www.w3.org/Graphics/SVG/1.1/DTD/svg11.dtd">
<svg width="100%" height="100%" viewBox="0 0 55 55" version="1.1" xmlns="http://www.w3.org/2000/svg" xmlns:xlink="http://www.w3.org/1999/xlink" xml:space="preserve" style="fill-rule:evenodd;clip-rule:evenodd;stroke-linejoin:round;stroke-miterlimit:1.41421;">
    <g transform="matrix(1,0,0,1,-36108.5,-12114.7)">
        <g transform="matrix(0.429342,0,0,0.429342,36136,12142.2)">
            <g transform="matrix(1,0,0,1,-64,-64)">
                <path d="M112,0L16,0C7.164,0 0,7.164 0,16L0,80C0,88.836 7.164,96 16,96L40,96L72,128L72,96L112,96C120.836,96 128,88.836 128,80L128,16C128,7.164 120.836,0 112,0ZM120,80C120,84.414 116.41,88 112,88L64,88L64,108.688L43.313,88L16,88C11.59,88 8,84.414 8,80L8,16C8,11.586 11.59,8 16,8L112,8C116.41,8 120,11.586 120,16L120,80Z" style="fill:rgb(242,242,242);fill-rule:nonzero;"/>
                <rect x="24" y="24" width="80" height="8" style="fill:rgb(242,242,242);fill-rule:nonzero;"/>
                <rect x="24" y="40" width="80" height="8" style="fill:rgb(242,242,242);fill-rule:nonzero;"/>
                <rect x="24" y="56" width="48" height="8" style="fill:rgb(242,242,242);fill-rule:nonzero;"/>
            </g>
        </g>
    </g>
</svg>
