<?xml version="1.0" encoding="UTF-8" standalone="no"?>
<!DOCTYPE svg PUBLIC "-//W3C//DTD SVG 1.1//EN" "http://www.w3.org/Graphics/SVG/1.1/DTD/svg11.dtd">
<svg width="100%" height="100%" viewBox="0 0 55 55" version="1.1" xmlns="http://www.w3.org/2000/svg" xmlns:xlink="http://www.w3.org/1999/xlink" xml:space="preserve" style="fill-rule:evenodd;clip-rule:evenodd;stroke-linejoin:round;stroke-miterlimit:1.41421;">
    <g transform="matrix(1,0,0,1,-35896.9,-12114.7)">
        <g transform="matrix(1.71737,0,0,1.71737,35896.9,12114.7)">
            <path d="M29.334,3L25,3L25,1C25,0.447 24.553,0 24,0C23.447,0 23,0.447 23,1L23,3L17,3L17,1C17,0.447 16.552,0 16,0C15.448,0 15,0.447 15,1L15,3L9,3L9,1C9,0.447 8.552,0 8,0C7.448,0 7,0.447 7,1L7,3L2.667,3C1.194,3 0,4.193 0,5.666L0,29.333C0,30.806 1.194,32 2.667,32L29.334,32C30.807,32 32,30.806 32,29.333L32,5.666C32,4.193 30.807,3 29.334,3ZM30,29.333C30,29.701 29.701,30 29.334,30L2.667,30C2.299,30 2,29.701 2,29.333L2,5.666C2,5.299 2.299,5 2.667,5L7,5L7,7C7,7.553 7.448,8 8,8C8.552,8 9,7.553 9,7L9,5L15,5L15,7C15,7.553 15.448,8 16,8C16.552,8 17,7.553 17,7L17,5L23,5L23,7C23,7.553 23.447,8 24,8C24.553,8 25,7.553 25,7L25,5L29.334,5C29.701,5 30,5.299 30,5.666L30,29.333Z" style="fill:rgb(238,238,238);fill-rule:nonzero;"/>
            <rect x="7" y="12" width="4" height="3" style="fill:rgb(238,238,238);"/>
            <rect x="7" y="17" width="4" height="3" style="fill:rgb(238,238,238);"/>
            <rect x="7" y="22" width="4" height="3" style="fill:rgb(238,238,238);"/>
            <rect x="14" y="22" width="4" height="3" style="fill:rgb(238,238,238);"/>
            <rect x="14" y="17" width="4" height="3" style="fill:rgb(238,238,238);"/>
            <rect x="14" y="12" width="4" height="3" style="fill:rgb(238,238,238);"/>
            <rect x="21" y="22" width="4" height="3" style="fill:rgb(238,238,238);"/>
            <rect x="21" y="17" width="4" height="3" style="fill:rgb(238,238,238);"/>
            <rect x="21" y="12" width="4" height="3" style="fill:rgb(238,238,238);"/>
        </g>
    </g>
</svg>
