<?xml version="1.0" encoding="UTF-8" standalone="no"?>
<!DOCTYPE svg PUBLIC "-//W3C//DTD SVG 1.1//EN" "http://www.w3.org/Graphics/SVG/1.1/DTD/svg11.dtd">
<svg width="100%" height="100%" viewBox="0 0 80 58" version="1.1" xmlns="http://www.w3.org/2000/svg" xmlns:xlink="http://www.w3.org/1999/xlink" xml:space="preserve" style="fill-rule:evenodd;clip-rule:evenodd;stroke-linecap:round;stroke-linejoin:round;stroke-miterlimit:10;">
    <g transform="matrix(1,0,0,1,-36696.3,-12114.2)">
        <g transform="matrix(1.04877,0,0,1.04877,36695.3,12101.8)">
            <path d="M60.6,12.8L17.4,12.8C8.9,12.8 2,19.7 2,28.2L2,49.8C2,58.3 8.9,65.2 17.4,65.2L60.7,65.2C69.2,65.2 76.1,58.3 76.1,49.8L76.1,28.2C76,19.7 69.1,12.8 60.6,12.8ZM50.2,40.1L30,49.7C29.5,50 28.8,49.6 28.8,49L28.8,29.1C28.8,28.5 29.4,28.1 30,28.4L50.2,38.7C50.9,38.9 50.8,39.8 50.2,40.1Z" style="fill:none;stroke:rgb(242,242,242);stroke-width:2px;"/>
        </g>
    </g>
</svg>
