<?xml version="1.0" encoding="UTF-8" standalone="no"?>
<!DOCTYPE svg PUBLIC "-//W3C//DTD SVG 1.1//EN" "http://www.w3.org/Graphics/SVG/1.1/DTD/svg11.dtd">
<svg width="100%" height="100%" viewBox="0 0 23 23" version="1.1" xmlns="http://www.w3.org/2000/svg" xmlns:xlink="http://www.w3.org/1999/xlink" xml:space="preserve" style="fill-rule:evenodd;clip-rule:evenodd;stroke-linejoin:round;stroke-miterlimit:1.41421;">
    <g transform="matrix(1,0,0,1,-41080.7,-4378.37)">
        <g transform="matrix(1,0,0,4.53704,40140.7,4359.79)">
            <g id="_1481157777_19" transform="matrix(0.0766667,0,0,0.016898,951.5,6.63097)">
                <g transform="matrix(1,0,0,1,-150,-150)">
                    <g>
                        <path d="M151.123,14.8C76.566,14.8 16.125,75.24 16.125,149.802C16.125,224.356 76.565,284.8 151.123,284.8C225.682,284.8 286.125,224.357 286.125,149.802C286.125,75.241 225.682,14.8 151.123,14.8ZM151.123,265.714C87.11,265.714 35.212,213.813 35.212,149.802C35.212,85.784 87.11,33.891 151.123,33.891C215.142,33.891 267.035,85.785 267.035,149.802C267.035,213.813 215.142,265.714 151.123,265.714Z" style="fill:white;fill-rule:nonzero;"/>
                        <circle cx="151.125" cy="149.802" r="104.431" style="fill:white;"/>
                        <g>
                            <path d="M139.156,93.922C142.176,91.131 145.794,89.739 149.985,89.739C154.18,89.739 157.77,91.131 160.778,93.922C163.774,96.726 165.274,100.083 165.274,104.013C165.274,107.944 163.757,111.292 160.734,114.064C157.713,116.832 154.132,118.215 149.985,118.215C145.802,118.215 142.184,116.836 139.156,114.064C136.132,111.293 134.62,107.944 134.62,104.013C134.62,100.083 136.132,96.726 139.156,93.922Z" style="fill:rgb(192,12,0);fill-rule:nonzero;"/>
                            <path d="M176.604,209.861L127.558,209.861L127.558,204.198C128.905,204.098 130.221,203.962 131.52,203.809C132.807,203.649 133.922,203.396 134.849,203.031C136.514,202.418 137.673,201.515 138.354,200.352C139.02,199.189 139.365,197.653 139.365,195.736L139.365,150.564C139.365,148.755 138.948,147.171 138.126,145.799C137.296,144.419 136.257,143.316 135.018,142.494C134.092,141.876 132.672,141.279 130.791,140.705C128.906,140.14 127.182,139.783 125.633,139.622L125.633,133.963L163.662,131.945L164.825,133.104L164.825,194.724C164.825,196.537 165.218,198.069 165.983,199.34C166.765,200.608 167.873,201.546 169.324,202.175C170.359,202.641 171.507,203.062 172.737,203.414C173.985,203.779 175.272,204.032 176.62,204.192L176.62,209.859L176.604,209.859L176.604,209.861Z" style="fill:rgb(192,12,0);fill-rule:nonzero;"/>
                        </g>
                    </g>
                </g>
            </g>
        </g>
    </g>
</svg>
