<?xml version="1.0" encoding="UTF-8"?>
<svg width="22px" height="17px" viewBox="0 0 22 17" version="1.1" xmlns="http://www.w3.org/2000/svg" xmlns:xlink="http://www.w3.org/1999/xlink">
    <!-- Generator: Sketch 48.2 (47327) - http://www.bohemiancoding.com/sketch -->
    <title>checkmark-icon</title>
    <desc>Created with Sketch.</desc>
    <defs></defs>
    <g id="Landing-Page" stroke="none" stroke-width="1" fill="none" fill-rule="evenodd" transform="translate(-758.000000, -2674.000000)">
        <g id="Group-18" transform="translate(755.000000, 2430.000000)" fill="#47B050">
            <path d="M24.379491,248.008913 C24.379491,248.343735 24.2455622,248.678557 24.0044905,248.919628 L12.4866196,260.437499 C12.2455479,260.678571 11.9107261,260.8125 11.5759043,260.8125 C11.2410824,260.8125 10.9062606,260.678571 10.6651889,260.437499 L3.99553809,253.767849 C3.75446638,253.526777 3.62053765,253.191955 3.62053765,252.857133 C3.62053765,252.522311 3.75446638,252.187489 3.99553809,251.946418 L5.81696884,250.124987 C6.05804055,249.883915 6.39286238,249.749987 6.72768421,249.749987 C7.06250603,249.749987 7.39732786,249.883915 7.63839958,250.124987 L11.5759043,254.075885 L20.361629,245.276767 C20.6027007,245.035695 20.9375226,244.901767 21.2723444,244.901767 C21.6071662,244.901767 21.9419881,245.035695 22.1830598,245.276767 L24.0044905,247.098198 C24.2455622,247.339269 24.379491,247.674091 24.379491,248.008913 Z" id="checkmark-icon"></path>
        </g>
    </g>
</svg>