<?xml version="1.0" encoding="UTF-8"?>
<svg width="42px" height="88px" viewBox="0 0 42 88" version="1.1" xmlns="http://www.w3.org/2000/svg" xmlns:xlink="http://www.w3.org/1999/xlink">
    <!-- Generator: Sketch 48.2 (47327) - http://www.bohemiancoding.com/sketch -->
    <title>eliminating-wheel-related-vibrations-image-4</title>
    <desc>Created with Sketch.</desc>
    <defs></defs>
    <g id="Landing-Page-Open" stroke="none" stroke-width="1" fill="none" fill-rule="evenodd" transform="translate(-217.000000, -2726.000000)">
        <g id="Group-44" transform="translate(217.000000, 2725.000000)" fill="#EEE51D">
            <g id="eliminating-wheel-related-vibrations-image-4" transform="translate(0.000000, 1.000000)">
                <path d="M31.1818182,51.6363636 L34.8181818,55.2727273 L31.1818182,58.9090909 L7.54545455,58.9090909 L3.90909091,55.2727273 L7.54545455,51.6363636 L31.1818182,51.6363636 Z M34.8181818,88 L4.81818182,88 C2.39392727,87.3939364 0.878790909,85.8788 0.272727273,83.4545455 L7.54545455,80.7272727 L32.0909091,80.7272727 L34.8181818,88 Z M0.272727273,81.6363636 L0.272727273,58 L2.09090909,56.1818182 L7.54545455,61.6363636 L7.54545455,78.9090909 L0.272727273,81.6363636 Z M29.3636364,29.8181818 L7.63636364,29.8181818 L0.363636364,27.0909091 C0.9697,24.6666545 2.48483636,23.1515182 4.90909091,22.5454545 L32.0909091,22.5454545 L29.3636364,29.8181818 Z M31.1818182,48.9090909 L31.1818182,29.8181818 L33.9090909,22.5454545 C36.3333455,23.1515182 37.8484818,24.6666545 38.4545455,27.0909091 L38.4545455,52.5454545 L36.6363636,54.3636364 L31.1818182,48.9090909 Z" id="2"></path>
                <path d="M15.3818182,5.45454545 L16.0363636,6.10909091 L15.3818182,6.76363636 L11.1272727,6.76363636 L10.4727273,6.10909091 L11.1272727,5.45454545 L15.3818182,5.45454545 Z M16.3636364,6.27272727 L16.6909091,6.6 L16.6909091,11.1818182 C16.5818176,11.618184 16.3090931,11.8909085 15.8727273,12 L15.3818182,10.6909091 L15.3818182,7.25454545 L16.3636364,6.27272727 Z M15.5454545,12 L10.6363636,12 C10.1999978,11.8909085 9.92727327,11.618184 9.81818182,11.1818182 L11.1272727,10.6909091 L15.0545455,10.6909091 L15.5454545,12 Z M11.1272727,1.85454545 L11.1272727,4.96363636 L10.1454545,5.94545455 L9.81818182,5.61818182 L9.81818182,1.36363636 L11.1272727,1.85454545 Z M11.1436364,1.52727273 L9.83454545,1.03636364 C9.94363691,0.599997818 10.2163615,0.327273273 10.6527273,0.218181818 L15.8727273,0.218181818 C16.3090931,0.327273273 16.5818176,0.599997818 16.6909091,1.03636364 L15.3818182,1.52727273 L11.1436364,1.52727273 Z M21.7472727,6.27272727 L22.4018182,6.92727273 L22.4018182,11.1818182 C22.2927267,11.618184 22.0200022,11.8909085 21.5836364,12 L21.0927273,10.6909091 L21.0927273,6.92727273 L21.7472727,6.27272727 Z M21.0927273,5.29090909 L21.0927273,1.85454545 L22.4018182,1.85454545 L22.4018182,5.29090909 L21.7472727,5.94545455 L21.0927273,5.29090909 Z M19.6363636,1.52727273 L18.3272727,1.03636364 C18.4363642,0.599997818 18.7090887,0.327273273 19.1454545,0.218181818 L24.3654545,0.218181818 C24.8018204,0.327273273 25.0745449,0.599997818 25.1836364,1.03636364 L23.8745455,1.52727273 L19.6363636,1.52727273 Z M32.3836364,5.45454545 L33.0381818,6.10909091 L32.3836364,6.76363636 L28.1290909,6.76363636 L27.4745455,6.10909091 L28.1290909,5.45454545 L32.3836364,5.45454545 Z M33.0381818,12 L27.6381818,12 C27.201816,11.8909085 26.9290915,11.618184 26.82,11.1818182 L28.1290909,10.6909091 L32.5472727,10.6909091 L33.0381818,12 Z M26.82,10.8545455 L26.82,6.6 L27.1472727,6.27272727 L28.1290909,7.25454545 L28.1290909,10.3636364 L26.82,10.8545455 Z M32.5472727,1.52727273 L28.1454545,1.52727273 L26.8363636,1.03636364 C26.9454551,0.599997818 27.2181796,0.327273273 27.6545455,0.218181818 L33.0381818,0.218181818 L32.5472727,1.52727273 Z M28.1290909,1.85454545 L28.1290909,4.96363636 L27.1472727,5.94545455 L26.82,5.61818182 L26.82,1.36363636 L28.1290909,1.85454545 Z M40.2381818,5.45454545 L40.8927273,6.10909091 L40.2381818,6.76363636 L35.9836364,6.76363636 L35.3290909,6.10909091 L35.9836364,5.45454545 L40.2381818,5.45454545 Z M39.9109091,1.52727273 L35.9836364,1.52727273 L34.6745455,1.03636364 L34.6745455,0.218181818 L39.9109091,0.218181818 L40.5654545,0.872727273 L39.9109091,1.52727273 Z M35.9836364,1.85454545 L35.9836364,4.96363636 L35.0018182,5.94545455 L34.6745455,5.61818182 L34.6745455,1.36363636 L35.9836364,1.85454545 Z M40.2381818,4.96363636 L40.2381818,1.52727273 L40.7290909,1.03636364 L41.5472727,1.85454545 L41.5472727,5.61818182 L41.22,5.94545455 L40.2381818,4.96363636 Z M35.9836364,7.25454545 L35.9836364,10.6909091 L35.4927273,12 C35.0563615,11.8909085 34.7836369,11.618184 34.6745455,11.1818182 L34.6745455,6.6 L35.0018182,6.27272727 L35.9836364,7.25454545 Z" id="Step"></path>
            </g>
        </g>
    </g>
</svg>