<?xml version="1.0" encoding="UTF-8" standalone="no"?>
<!DOCTYPE svg PUBLIC "-//W3C//DTD SVG 1.1//EN" "http://www.w3.org/Graphics/SVG/1.1/DTD/svg11.dtd">
<svg width="100%" height="100%" viewBox="0 0 15 22" version="1.1" xmlns="http://www.w3.org/2000/svg" xmlns:xlink="http://www.w3.org/1999/xlink" xml:space="preserve" style="fill-rule:evenodd;clip-rule:evenodd;stroke-linejoin:round;stroke-miterlimit:1.41421;">
    <g transform="matrix(1,0,0,1,-41312.8,-4378.87)">
        <g transform="matrix(1,0,0,4.20101,-6358.25,-75199.8)">
            <g id="map-location-pin-map-marker-glyph" transform="matrix(1,0,0,0.238038,47199,18837.1)">
                <path d="M479.5,466C479.5,466 487,456.128 487,451.813C487,447.498 484.519,444 479.5,444C474.481,444 472,447.498 472,451.813C472,456.128 479.5,466 479.5,466ZM479.5,454.5C481.709,454.5 483.5,452.709 483.5,450.5C483.5,448.291 481.709,446.5 479.5,446.5C477.291,446.5 475.5,448.291 475.5,450.5C475.5,452.709 477.291,454.5 479.5,454.5Z" style="fill:rgb(242,242,242);"/>
            </g>
        </g>
    </g>
</svg>
