<?xml version="1.0" encoding="UTF-8" standalone="no"?>
<!DOCTYPE svg PUBLIC "-//W3C//DTD SVG 1.1//EN" "http://www.w3.org/Graphics/SVG/1.1/DTD/svg11.dtd">
<svg width="100%" height="100%" viewBox="0 0 23 23" version="1.1" xmlns="http://www.w3.org/2000/svg" xmlns:xlink="http://www.w3.org/1999/xlink" xml:space="preserve" style="fill-rule:evenodd;clip-rule:evenodd;stroke-linejoin:round;stroke-miterlimit:1.41421;">
    <g transform="matrix(1,0,0,1,-41784.7,-4378.37)">
        <g transform="matrix(1,0,0,4.20101,-6339.27,-75199.8)">
            <g id="circle-world-global-internet-earth-glyph" transform="matrix(1,0,0,0.238038,47296,18914.3)">
                <path d="M828,130.5C828,124.149 833.149,119 839.5,119C845.851,119 851,124.149 851,130.5C851,136.851 845.851,142 839.5,142C833.149,142 828,136.851 828,130.5ZM841.835,124.221C841.296,124.369 841.916,125.795 841.348,125.676C840.785,125.558 840.11,125.003 839.742,124.686C839.309,124.312 840.479,124.343 840.697,124.035C840.958,123.666 840.731,123.314 840.516,123.245C839.701,122.984 838.569,123.595 838.034,123.461C837.089,123.223 837.526,122.992 836.509,122.85C836.001,122.779 835.447,123.146 834.604,122.98C833.575,122.777 833.585,124.706 833.2,125.157C834.163,124.317 836.109,124.932 835.918,125.676C835.669,126.648 837.448,128.174 837.73,128.873C837.879,129.239 838.49,128.477 838.985,129.86C839.075,130.291 839.615,130.005 840.078,130.089C840.646,130.192 840.97,130.656 841.157,130.762C841.725,131.083 838.837,131.757 841.679,133.831C841.607,134.864 841.65,135.825 841.54,135.999C841.29,136.397 841.423,136.651 841.54,136.777C840.862,136.951 841.676,138.395 842.218,138.065C842.551,137.862 842.218,137.441 842.508,137.04C842.218,136.34 844.631,134.424 845.076,134.091C845.076,134.091 845.06,133.249 845.733,132.72C846.067,132.457 845.229,131.924 844.657,132.108C844.657,132.108 844.623,131.025 843.054,131.16C842.453,131.212 842.052,130.835 842.052,130.835C842.052,130.835 841.54,129.86 840.977,129.86C840.886,129.86 841.047,129.499 840.697,129.316C840.422,129.172 839.658,129.163 839.658,128.873C839.658,128.583 840.399,128.698 840.86,128.332C840.999,128.222 841.204,128.763 841.348,128.642C841.513,128.502 841.167,128.247 841.679,127.812C841.772,127.733 842.275,127.192 842.702,126.841C842.856,126.714 843.16,126.812 843.207,126.684C843.384,126.201 842.559,126.608 842.837,125.995C842.936,125.775 844.466,126.381 844.554,126.293C844.766,126.08 843.422,126.008 843.979,125.676C844.215,125.535 842.374,124.074 841.835,124.221Z" style="fill:rgb(235,235,235);"/>
            </g>
        </g>
    </g>
</svg>
