<?xml version="1.0" encoding="UTF-8" standalone="no"?>
<!DOCTYPE svg PUBLIC "-//W3C//DTD SVG 1.1//EN" "http://www.w3.org/Graphics/SVG/1.1/DTD/svg11.dtd">
<svg width="100%" height="100%" viewBox="0 0 682 682" version="1.1" xmlns="http://www.w3.org/2000/svg" xmlns:xlink="http://www.w3.org/1999/xlink" xml:space="preserve" style="fill-rule:evenodd;clip-rule:evenodd;stroke-linejoin:round;stroke-miterlimit:1.41421;">
    <g transform="matrix(1,0,0,1,-2200.84,-1255.76)">
        <g transform="matrix(4.16667,0,0,4.16667,0,0)">
            <g transform="matrix(0.707107,-0.707107,0.707107,0.707107,68.4516,704.347)">
                <path d="M672.742,102.865L663.046,93.169C659.141,89.264 652.809,89.264 648.903,93.169L610.032,132.04L571.161,93.169C567.256,89.264 560.924,89.264 557.019,93.169L547.322,102.864C543.418,106.77 543.418,113.102 547.323,117.007L586.194,155.878L547.323,194.749C543.418,198.654 543.418,204.987 547.322,208.892L557.019,218.588C560.924,222.493 567.256,222.493 571.161,218.588L610.032,179.716L648.903,218.588C652.809,222.493 659.141,222.493 663.046,218.588L672.742,208.891C676.647,204.987 676.647,198.654 672.742,194.749L633.871,155.878L672.742,117.007C676.647,113.102 676.647,106.77 672.742,102.865Z" style="fill:white;fill-rule:nonzero;"/>
            </g>
        </g>
    </g>
</svg>
