<?xml version="1.0" encoding="UTF-8"?>
<svg width="22px" height="17px" viewBox="0 0 22 17" version="1.1" xmlns="http://www.w3.org/2000/svg" xmlns:xlink="http://www.w3.org/1999/xlink">
    <!-- Generator: Sketch 48.2 (47327) - http://www.bohemiancoding.com/sketch -->
    <title>red-checkmark</title>
    <desc>Created with Sketch.</desc>
    <defs></defs>
    <g id="Landing-Page-Open" stroke="none" stroke-width="1" fill="none" fill-rule="evenodd" transform="translate(-397.000000, -3043.000000)">
        <g id="Group-110-Copy" transform="translate(397.000000, 3038.000000)" fill="#C00C00">
            <path d="M21.379491,9.00891308 C21.379491,9.34373491 21.2455622,9.67855674 21.0044905,9.91962846 L9.48661964,21.4374993 C9.24554793,21.678571 8.9107261,21.8124998 8.57590427,21.8124998 C8.24108244,21.8124998 7.90626062,21.678571 7.6651889,21.4374993 L0.995538093,14.7678485 C0.754466377,14.5267768 0.620537646,14.191955 0.620537646,13.8571332 C0.620537646,13.5223113 0.754466377,13.1874895 0.995538093,12.9464178 L2.81696884,11.124987 C3.05804055,10.8839153 3.39286238,10.7499866 3.72768421,10.7499866 C4.06250603,10.7499866 4.39732786,10.8839153 4.63839958,11.124987 L8.57590427,15.0758846 L17.361629,6.27676697 C17.6027007,6.03569525 17.9375226,5.90176652 18.2723444,5.90176652 C18.6071662,5.90176652 18.9419881,6.03569525 19.1830598,6.27676697 L21.0044905,8.09819771 C21.2455622,8.33926943 21.379491,8.67409126 21.379491,9.00891308 Z" id="red-checkmark"></path>
        </g>
    </g>
</svg>