<?xml version="1.0" encoding="UTF-8"?>
<svg width="17px" height="17px" viewBox="0 0 17 17" version="1.1" xmlns="http://www.w3.org/2000/svg" xmlns:xlink="http://www.w3.org/1999/xlink">
    <!-- Generator: Sketch 48.2 (47327) - http://www.bohemiancoding.com/sketch -->
    <title>red-x</title>
    <desc>Created with Sketch.</desc>
    <defs></defs>
    <g id="Landing-Page" stroke="none" stroke-width="1" fill="none" fill-rule="evenodd" transform="translate(-226.000000, -4381.000000)">
        <g id="Group-225" transform="translate(0.000000, 3589.000000)" fill="#C00C00">
            <g id="Group-223" transform="translate(0.000000, 599.000000)">
                <g id="Group-171" transform="translate(222.000000, 99.000000)">
                    <g id="Group-169" transform="translate(3.000000, 88.000000)">
                        <g id="Group-110" transform="translate(1.000000, 0.000000)">
                            <path d="M16.3839493,19.1339252 C16.3839493,19.468747 16.2500206,19.8035688 16.0089488,20.0446405 L14.1875181,21.8660713 C13.9464464,22.107143 13.6116246,22.2410717 13.2768027,22.2410717 C12.9419809,22.2410717 12.6071591,22.107143 12.3660874,21.8660713 L8.42858267,17.9285666 L4.49107797,21.8660713 C4.25000626,22.107143 3.91518443,22.2410717 3.5803626,22.2410717 C3.24554078,22.2410717 2.91071895,22.107143 2.66964723,21.8660713 L0.848216489,20.0446405 C0.607144773,19.8035688 0.473216042,19.468747 0.473216042,19.1339252 C0.473216042,18.7991033 0.607144773,18.4642815 0.848216489,18.2232098 L4.78572118,14.2857051 L0.848216489,10.3482004 C0.607144773,10.1071287 0.473216042,9.77230685 0.473216042,9.43748502 C0.473216042,9.1026632 0.607144773,8.76784137 0.848216489,8.52676965 L2.66964723,6.70533891 C2.91071895,6.46426719 3.24554078,6.33033846 3.5803626,6.33033846 C3.91518443,6.33033846 4.25000626,6.46426719 4.49107797,6.70533891 L8.42858267,10.6428436 L12.3660874,6.70533891 C12.6071591,6.46426719 12.9419809,6.33033846 13.2768027,6.33033846 C13.6116246,6.33033846 13.9464464,6.46426719 14.1875181,6.70533891 L16.0089488,8.52676965 C16.2500206,8.76784137 16.3839493,9.1026632 16.3839493,9.43748502 C16.3839493,9.77230685 16.2500206,10.1071287 16.0089488,10.3482004 L12.0714442,14.2857051 L16.0089488,18.2232098 C16.2500206,18.4642815 16.3839493,18.7991033 16.3839493,19.1339252 Z" id="red-x"></path>
                        </g>
                    </g>
                </g>
            </g>
        </g>
    </g>
</svg>