<?xml version="1.0" encoding="UTF-8" standalone="no"?>
<!DOCTYPE svg PUBLIC "-//W3C//DTD SVG 1.1//EN" "http://www.w3.org/Graphics/SVG/1.1/DTD/svg11.dtd">
<svg width="100%" height="100%" viewBox="0 0 80 77" version="1.1" xmlns="http://www.w3.org/2000/svg" xmlns:xlink="http://www.w3.org/1999/xlink" xml:space="preserve" style="fill-rule:evenodd;clip-rule:evenodd;stroke-linejoin:round;stroke-miterlimit:1.41421;">
    <g transform="matrix(1,0,0,1,-83209,-5150.83)">
        <g transform="matrix(0.397314,0,0,0.397314,83209,5149.41)">
            <path d="M157.009,117.575C156.466,115.183 155.141,112.927 153.055,111.102C150.952,109.289 148.39,108.195 145.732,107.795L102.992,99.524L115.356,107.729L95.835,168.924L84.842,123.467L73.846,168.924L54.33,107.73L66.692,99.525L23.949,107.796C21.293,108.195 18.728,109.29 16.628,111.103C14.54,112.927 13.215,115.184 12.672,117.576L0,173.235L23.901,181.533C31.843,189.78 54.055,195.849 80.698,196.426L88.981,196.426C115.627,195.85 137.839,189.78 145.777,181.533L169.682,173.235L157.009,117.575Z" style="fill:rgb(235,235,235);fill-rule:nonzero;"/>
            <path d="M84.841,105.735L74.987,109.265L84.841,123.469L94.693,109.265L84.841,105.735Z" style="fill:rgb(235,235,235);fill-rule:nonzero;"/>
            <path d="M121.418,50.925C121.418,25.663 111.024,5.865 84.841,5.865C58.655,5.865 48.262,25.663 48.262,50.925C45.524,52.355 43.727,55.707 46.414,62.892C47.772,66.501 50.164,69.524 52.191,71.106C59.652,89.684 74.328,104.027 84.841,104.027C95.349,104.027 110.027,89.683 117.487,71.106C119.518,69.524 121.907,66.502 123.263,62.892C125.956,55.707 124.158,52.354 121.418,50.925Z" style="fill:rgb(235,235,235);fill-rule:nonzero;"/>
            <g>
                <path d="M147.349,40.985L127.925,40.985C128.05,42.089 128.156,43.207 128.24,44.35L147.348,44.35L147.348,40.985L147.349,40.985Z" style="fill:rgb(235,235,235);fill-rule:nonzero;"/>
                <path d="M186.626,29.385L125.613,29.385C125.941,30.48 126.227,31.609 126.499,32.752L186.626,32.752L186.626,29.385Z" style="fill:rgb(235,235,235);fill-rule:nonzero;"/>
                <path d="M197.701,5.875C196.167,4.343 194.156,3.574 192.145,3.574L105.691,3.574C109.526,5.589 112.926,8.22 115.85,11.43L192.145,11.43L192.145,66.42L171.12,66.42L155.205,82.337L155.205,66.42L129.446,66.42C128.209,69.321 126.442,72.065 124.405,74.278L147.348,74.278L147.348,95.884C147.348,96.762 147.869,97.598 148.732,97.957C149.597,98.316 150.556,98.095 151.179,97.47L174.374,74.277L192.145,74.277C194.156,74.277 196.166,73.508 197.701,71.974C199.235,70.44 200,68.43 200,66.419L200,11.43C200,9.419 199.235,7.411 197.701,5.875Z" style="fill:rgb(235,235,235);fill-rule:nonzero;"/>
                <path d="M186.626,17.79L120.563,17.79C121.215,18.871 121.832,19.991 122.407,21.157L186.626,21.157L186.626,17.79L186.626,17.79Z" style="fill:rgb(235,235,235);fill-rule:nonzero;"/>
            </g>
        </g>
    </g>
</svg>
