<?xml version="1.0" encoding="UTF-8"?>
<svg width="158px" height="109px" viewBox="0 0 158 109" version="1.1" xmlns="http://www.w3.org/2000/svg" xmlns:xlink="http://www.w3.org/1999/xlink">
    <!-- Generator: Sketch 48.2 (47327) - http://www.bohemiancoding.com/sketch -->
    <title>saving-time-and-money-smartweight-touch-image-5</title>
    <desc>Created with Sketch.</desc>
    <defs>
        <path d="M803.388672,687 L733.935547,687 L733.935547,671.960938 L765.927734,638.328125 C773.811888,629.350216 777.753906,622.218125 777.753906,616.931641 C777.753906,612.647765 776.819671,609.389334 774.951172,607.15625 C773.082673,604.923166 770.371112,603.806641 766.816406,603.806641 C763.307274,603.806641 760.458995,605.299139 758.271484,608.28418 C756.083973,611.269221 754.990234,614.994769 754.990234,619.460938 L731.884766,619.460938 C731.884766,613.354136 733.411443,607.714544 736.464844,602.541992 C739.518244,597.36944 743.756483,593.324884 749.179688,590.408203 C754.602892,587.491522 760.664029,586.033203 767.363281,586.033203 C778.118543,586.033203 786.401338,588.516902 792.211914,593.484375 C798.02249,598.451848 800.927734,605.583938 800.927734,614.880859 C800.927734,618.80015 800.198575,622.616843 798.740234,626.331055 C797.281894,630.045266 795.014664,633.941711 791.938477,638.020508 C788.862289,642.099304 783.906284,647.556606 777.070312,654.392578 L764.21875,669.226562 L803.388672,669.226562 L803.388672,687 Z M816.376953,638.328125 L822.460938,587.46875 L880.634766,587.46875 L880.634766,605.378906 L841.191406,605.378906 L838.935547,625.134766 C840.57618,624.17773 842.729479,623.334639 845.395508,622.605469 C848.061537,621.876298 850.67056,621.511719 853.222656,621.511719 C863.112029,621.511719 870.711236,624.439749 876.020508,630.295898 C881.329779,636.152048 883.984375,644.366484 883.984375,654.939453 C883.984375,661.319693 882.560236,667.096003 879.711914,672.268555 C876.863593,677.441107 872.864609,681.417304 867.714844,684.197266 C862.565078,686.977227 856.481155,688.367188 849.462891,688.367188 C843.21937,688.367188 837.363309,687.079765 831.894531,684.504883 C826.425754,681.93 822.141943,678.398134 819.042969,673.90918 C815.943995,669.420225 814.417317,664.350289 814.462891,658.699219 L837.568359,658.699219 C837.796225,662.34507 838.958323,665.238922 841.054688,667.380859 C843.151052,669.522797 845.908186,670.59375 849.326172,670.59375 C857.073606,670.59375 860.947266,664.85162 860.947266,653.367188 C860.947266,642.748645 856.20773,637.439453 846.728516,637.439453 C841.350885,637.439453 837.340508,639.171207 834.697266,642.634766 L816.376953,638.328125 Z" id="path-1"></path>
        <filter x="-2.3%" y="-3.4%" width="107.2%" height="110.7%" filterUnits="objectBoundingBox" id="filter-2">
            <feOffset dx="2" dy="2" in="SourceAlpha" result="shadowOffsetOuter1"></feOffset>
            <feGaussianBlur stdDeviation="1.5" in="shadowOffsetOuter1" result="shadowBlurOuter1"></feGaussianBlur>
            <feColorMatrix values="0 0 0 0 0.65327381   0 0 0 0 0.65327381   0 0 0 0 0.65327381  0 0 0 0.718636775 0" type="matrix" in="shadowBlurOuter1"></feColorMatrix>
        </filter>
    </defs>
    <g id="Landing-Page-Open" stroke="none" stroke-width="1" fill="none" fill-rule="evenodd" transform="translate(-987.000000, -2792.000000)">
        <g id="Group-51" transform="translate(256.000000, 2207.000000)">
            <g id="saving-time-and-money-smartweight-touch-image-5">
                <use fill="black" fill-opacity="1" filter="url(#filter-2)" xlink:href="#path-1"></use>
                <use fill="#40AD49" fill-rule="evenodd" xlink:href="#path-1"></use>
            </g>
        </g>
    </g>
</svg>