<?xml version="1.0" encoding="UTF-8"?>
<svg width="159px" height="109px" viewBox="0 0 159 109" version="1.1" xmlns="http://www.w3.org/2000/svg" xmlns:xlink="http://www.w3.org/1999/xlink">
    <!-- Generator: Sketch 48.2 (47327) - http://www.bohemiancoding.com/sketch -->
    <title>saving-time-and-money-smartweight-touch-image-6</title>
    <desc>Created with Sketch.</desc>
    <defs>
        <path d="M789.580078,819.033203 L789.580078,837.148438 L788.554688,837.148438 C779.941363,837.148438 772.866239,839.210591 767.329102,843.334961 C761.791965,847.459331 758.385423,853.190067 757.109375,860.527344 C762.304713,855.423152 768.867148,852.871094 776.796875,852.871094 C785.410199,852.871094 792.268855,856.015594 797.373047,862.304688 C802.477239,868.593781 805.029297,876.842397 805.029297,887.050781 C805.029297,893.385448 803.536799,899.195937 800.551758,904.482422 C797.566717,909.768907 793.396837,913.904607 788.041992,916.889648 C782.687148,919.874689 776.751335,921.367188 770.234375,921.367188 C763.170538,921.367188 756.858752,919.760758 751.298828,916.547852 C745.738904,913.334945 741.409521,908.743519 738.310547,902.773438 C735.211573,896.803356 733.616537,889.921914 733.525391,882.128906 L733.525391,872.900391 C733.525391,862.646433 735.724262,853.429403 740.12207,845.249023 C744.519879,837.068644 750.797485,830.65432 758.955078,826.005859 C767.112671,821.357399 776.158804,819.033203 786.09375,819.033203 L789.580078,819.033203 Z M768.798828,870.507812 C765.745427,870.507812 763.19337,871.214186 761.142578,872.626953 C759.091787,874.039721 757.565109,875.771474 756.5625,877.822266 L756.5625,884.726562 C756.5625,897.30475 760.91467,903.59375 769.619141,903.59375 C773.128273,903.59375 776.056303,902.0215 778.40332,898.876953 C780.750337,895.732406 781.923828,891.790388 781.923828,887.050781 C781.923828,882.174455 780.727551,878.198258 778.334961,875.12207 C775.942371,872.045883 772.763692,870.507812 768.798828,870.507812 Z M870.654297,819.033203 L870.654297,837.148438 L869.628906,837.148438 C861.015582,837.148438 853.940457,839.210591 848.40332,843.334961 C842.866183,847.459331 839.459642,853.190067 838.183594,860.527344 C843.378932,855.423152 849.941367,852.871094 857.871094,852.871094 C866.484418,852.871094 873.343073,856.015594 878.447266,862.304688 C883.551458,868.593781 886.103516,876.842397 886.103516,887.050781 C886.103516,893.385448 884.611018,899.195937 881.625977,904.482422 C878.640936,909.768907 874.471055,913.904607 869.116211,916.889648 C863.761366,919.874689 857.825553,921.367188 851.308594,921.367188 C844.244756,921.367188 837.932971,919.760758 832.373047,916.547852 C826.813123,913.334945 822.483739,908.743519 819.384766,902.773438 C816.285792,896.803356 814.690756,889.921914 814.599609,882.128906 L814.599609,872.900391 C814.599609,862.646433 816.798481,853.429403 821.196289,845.249023 C825.594098,837.068644 831.871704,830.65432 840.029297,826.005859 C848.18689,821.357399 857.233023,819.033203 867.167969,819.033203 L870.654297,819.033203 Z M849.873047,870.507812 C846.819646,870.507812 844.267588,871.214186 842.216797,872.626953 C840.166005,874.039721 838.639328,875.771474 837.636719,877.822266 L837.636719,884.726562 C837.636719,897.30475 841.988889,903.59375 850.693359,903.59375 C854.202492,903.59375 857.130522,902.0215 859.477539,898.876953 C861.824556,895.732406 862.998047,891.790388 862.998047,887.050781 C862.998047,882.174455 861.80177,878.198258 859.40918,875.12207 C857.01659,872.045883 853.83791,870.507812 849.873047,870.507812 Z" id="path-1"></path>
        <filter x="-2.3%" y="-3.4%" width="107.2%" height="110.7%" filterUnits="objectBoundingBox" id="filter-2">
            <feOffset dx="2" dy="2" in="SourceAlpha" result="shadowOffsetOuter1"></feOffset>
            <feGaussianBlur stdDeviation="1.5" in="shadowOffsetOuter1" result="shadowBlurOuter1"></feGaussianBlur>
            <feColorMatrix values="0 0 0 0 0.65327381   0 0 0 0 0.65327381   0 0 0 0 0.65327381  0 0 0 0.718636775 0" type="matrix" in="shadowBlurOuter1"></feColorMatrix>
        </filter>
    </defs>
    <g id="Landing-Page-Open" stroke="none" stroke-width="1" fill="none" fill-rule="evenodd" transform="translate(-988.000000, -3025.000000)">
        <g id="Group-51" transform="translate(256.000000, 2207.000000)">
            <g id="saving-time-and-money-smartweight-touch-image-6">
                <use fill="black" fill-opacity="1" filter="url(#filter-2)" xlink:href="#path-1"></use>
                <use fill="#40AD49" fill-rule="evenodd" xlink:href="#path-1"></use>
            </g>
        </g>
    </g>
</svg>