<?xml version="1.0" encoding="UTF-8"?>
<svg width="76px" height="109px" viewBox="0 0 76 109" version="1.1" xmlns="http://www.w3.org/2000/svg" xmlns:xlink="http://www.w3.org/1999/xlink">
    <!-- Generator: Sketch 48.2 (47327) - http://www.bohemiancoding.com/sketch -->
    <title>saving-time-and-money-smartweight-touch-image-3</title>
    <desc>Created with Sketch.</desc>
    <defs>
        <path d="M860.400391,339.513672 C855.432918,343.97984 849.873078,346.212891 843.720703,346.212891 C834.697221,346.212891 827.542344,343.159536 822.255859,337.052734 C816.969375,330.945933 814.326172,322.788463 814.326172,312.580078 C814.326172,306.199838 815.807277,300.275418 818.769531,294.806641 C821.731786,289.337863 825.890273,285.008479 831.245117,281.818359 C836.599962,278.628239 842.512988,277.033203 848.984375,277.033203 C855.546908,277.033203 861.482721,278.685205 866.791992,281.989258 C872.101264,285.293311 876.236964,289.964488 879.199219,296.00293 C882.161473,302.041371 883.688151,309.002565 883.779297,316.886719 L883.779297,325.705078 C883.779297,336.688206 881.625998,346.21285 877.319336,354.279297 C873.012674,362.345743 866.871785,368.543598 858.896484,372.873047 C850.921184,377.202496 841.624402,379.367188 831.005859,379.367188 L829.570312,379.367188 L829.570312,360.910156 L833.945312,360.841797 C849.804767,360.067053 858.623038,352.95775 860.400391,339.513672 Z M849.941406,329.601562 C854.954452,329.601562 858.554677,327.436871 860.742188,323.107422 L860.742188,313.537109 C860.742188,307.156869 859.671235,302.440119 857.529297,299.386719 C855.387359,296.333318 852.493508,294.806641 848.847656,294.806641 C845.611963,294.806641 842.900402,296.538394 840.712891,300.001953 C838.52538,303.465512 837.431641,307.658179 837.431641,312.580078 C837.431641,317.775417 838.548166,321.911117 840.78125,324.987305 C843.014334,328.063492 846.067689,329.601562 849.941406,329.601562 Z" id="path-1"></path>
        <filter x="-5.0%" y="-3.4%" width="115.8%" height="110.7%" filterUnits="objectBoundingBox" id="filter-2">
            <feOffset dx="2" dy="2" in="SourceAlpha" result="shadowOffsetOuter1"></feOffset>
            <feGaussianBlur stdDeviation="1.5" in="shadowOffsetOuter1" result="shadowBlurOuter1"></feGaussianBlur>
            <feColorMatrix values="0 0 0 0 0.65327381   0 0 0 0 0.65327381   0 0 0 0 0.65327381  0 0 0 0.718636775 0" type="matrix" in="shadowBlurOuter1"></feColorMatrix>
        </filter>
    </defs>
    <g id="Landing-Page-Open" stroke="none" stroke-width="1" fill="none" fill-rule="evenodd" transform="translate(-1069.000000, -2483.000000)">
        <g id="Group-51" transform="translate(256.000000, 2207.000000)">
            <g id="saving-time-and-money-smartweight-touch-image-3">
                <use fill="black" fill-opacity="1" filter="url(#filter-2)" xlink:href="#path-1"></use>
                <use fill="#40AD49" fill-rule="evenodd" xlink:href="#path-1"></use>
            </g>
        </g>
    </g>
</svg>