<?xml version="1.0" encoding="UTF-8"?>
<svg width="331px" height="134px" viewBox="0 0 331 134" version="1.1" xmlns="http://www.w3.org/2000/svg" xmlns:xlink="http://www.w3.org/1999/xlink">
    <!-- Generator: Sketch 48.2 (47327) - http://www.bohemiancoding.com/sketch -->
    <title>saving-time-and-money-smartweight-touch-image-7</title>
    <desc>Created with Sketch.</desc>
    <defs>
        <path d="M638.232403,1065.77344 L601.044903,1153 L576.708965,1153 L613.964825,1071.24219 L566.523418,1071.24219 L566.523418,1053.46875 L638.232403,1053.46875 L638.232403,1065.77344 Z M651.6035,1179.79688 L639.982407,1174.32812 L642.306625,1169.67969 C645.496745,1163.75518 647.16014,1158.10419 647.29686,1152.72656 L647.29686,1135.63672 L665.753891,1135.63672 L665.685532,1150.4707 C665.639958,1155.71161 664.295571,1161.04359 661.652328,1166.4668 C659.009086,1171.89 655.65951,1176.33332 651.6035,1179.79688 Z M724.92577,1153 L701.820301,1153 L701.820301,1079.44531 L679.124989,1086.07617 L679.124989,1068.57617 L722.806629,1053.46875 L724.92577,1053.46875 L724.92577,1153 Z M768.990227,1093.5957 L779.859367,1093.5957 C788.472692,1093.5957 792.779289,1089.38025 792.779289,1080.94922 C792.779289,1077.66795 791.753909,1074.99057 789.703117,1072.91699 C787.652326,1070.84341 784.758475,1069.80664 781.021477,1069.80664 C777.968076,1069.80664 775.31348,1070.6953 773.05761,1072.47266 C770.801739,1074.25001 769.67382,1076.46027 769.67382,1079.10352 L746.636711,1079.10352 C746.636711,1073.8626 748.09503,1069.19143 751.011711,1065.08984 C753.928392,1060.98826 757.972948,1057.7868 763.1455,1055.48535 C768.318052,1053.18391 774.003217,1052.0332 780.201164,1052.0332 C791.275438,1052.0332 799.979778,1054.56247 806.314445,1059.62109 C812.649113,1064.67971 815.816399,1071.62951 815.816399,1080.4707 C815.816399,1084.75458 814.50619,1088.79913 811.885735,1092.60449 C809.265279,1096.40985 805.448585,1099.49738 800.435539,1101.86719 C805.722024,1103.78126 809.869118,1106.6865 812.876945,1110.58301 C815.884773,1114.47951 817.388664,1119.2988 817.388664,1125.04102 C817.388664,1133.92778 813.97073,1141.03708 807.134758,1146.36914 C800.298786,1151.7012 791.321012,1154.36719 780.201164,1154.36719 C773.684205,1154.36719 767.63446,1153.12534 762.05175,1150.6416 C756.46904,1148.15787 752.242194,1144.71714 749.371086,1140.31934 C746.499978,1135.92153 745.064445,1130.91995 745.064445,1125.31445 L768.238274,1125.31445 C768.238274,1128.36785 769.46873,1131.01106 771.92968,1133.24414 C774.39063,1135.47722 777.421198,1136.59375 781.021477,1136.59375 C785.077487,1136.59375 788.313131,1135.46583 790.728508,1133.20996 C793.143885,1130.95409 794.351555,1128.07163 794.351555,1124.5625 C794.351555,1119.54945 793.098312,1115.9948 790.591789,1113.89844 C788.085266,1111.80207 784.621759,1110.75391 780.201164,1110.75391 L768.990227,1110.75391 L768.990227,1093.5957 Z M891.12109,1112.32617 C891.12109,1125.77025 888.101914,1136.13798 882.063473,1143.42969 C876.025031,1150.72139 867.514374,1154.36719 856.531246,1154.36719 C845.456972,1154.36719 836.889349,1150.6986 830.828121,1143.36133 C824.766893,1136.02405 821.736324,1125.6791 821.736324,1112.32617 L821.736324,1094.14258 C821.736324,1080.6985 824.7555,1070.33077 830.793941,1063.03906 C836.832383,1055.74736 845.365826,1052.10156 856.394527,1052.10156 C867.423228,1052.10156 875.968065,1055.77015 882.029293,1063.10742 C888.090521,1070.4447 891.12109,1080.81243 891.12109,1094.21094 L891.12109,1112.32617 Z M868.083981,1091.20312 C868.083981,1084.04814 867.149745,1078.70477 865.281246,1075.17285 C863.412747,1071.64093 860.450537,1069.875 856.394527,1069.875 C852.429664,1069.875 849.547206,1071.51561 847.747066,1074.79688 C845.946927,1078.07814 844.978512,1083.04554 844.841793,1089.69922 L844.841793,1115.12891 C844.841793,1122.55733 845.776029,1127.99184 847.644527,1131.43262 C849.513026,1134.87339 852.475236,1136.59375 856.531246,1136.59375 C860.450537,1136.59375 863.344388,1134.91896 865.212887,1131.56934 C867.081386,1128.21971 868.038407,1122.96748 868.083981,1115.8125 L868.083981,1091.20312 Z" id="path-1"></path>
        <filter x="-1.1%" y="-2.7%" width="103.4%" height="108.6%" filterUnits="objectBoundingBox" id="filter-2">
            <feOffset dx="2" dy="2" in="SourceAlpha" result="shadowOffsetOuter1"></feOffset>
            <feGaussianBlur stdDeviation="1.5" in="shadowOffsetOuter1" result="shadowBlurOuter1"></feGaussianBlur>
            <feColorMatrix values="0 0 0 0 0.65327381   0 0 0 0 0.65327381   0 0 0 0 0.65327381  0 0 0 0.718636775 0" type="matrix" in="shadowBlurOuter1"></feColorMatrix>
        </filter>
    </defs>
    <g id="Landing-Page-Open" stroke="none" stroke-width="1" fill="none" fill-rule="evenodd" transform="translate(-821.000000, -3258.000000)">
        <g id="Group-51" transform="translate(256.000000, 2207.000000)">
            <g id="saving-time-and-money-smartweight-touch-image-7">
                <use fill="black" fill-opacity="1" filter="url(#filter-2)" xlink:href="#path-1"></use>
                <use fill="#40AD49" fill-rule="evenodd" xlink:href="#path-1"></use>
            </g>
        </g>
    </g>
</svg>