<?xml version="1.0" encoding="UTF-8" standalone="no"?>
<!DOCTYPE svg PUBLIC "-//W3C//DTD SVG 1.1//EN" "http://www.w3.org/Graphics/SVG/1.1/DTD/svg11.dtd">
<svg width="100%" height="100%" viewBox="0 0 22 22" version="1.1" xmlns="http://www.w3.org/2000/svg" xmlns:xlink="http://www.w3.org/1999/xlink" xml:space="preserve" style="fill-rule:evenodd;clip-rule:evenodd;stroke-linejoin:round;stroke-miterlimit:1.41421;">
    <g transform="matrix(1,0,0,1,-41190.7,-4378.37)">
        <g transform="matrix(1,0,0,4.20101,-6344.1,-75199.8)">
            <g id="editor-pencil-pen-edit-write-glyph" transform="matrix(0.707107,0.168318,-0.707107,0.168318,47070.6,18751.7)">
                <path d="M914,248.002L914,232.002L907.001,232.002L907,248.002L914,248.002ZM913.998,249.002L910.502,254L907.002,249.002L913.998,249.002ZM914,231.002L914.001,228.002C914.001,227 912.998,227 912.998,227L908.004,227C908.004,227 907.002,227 907.002,228.002L907.001,231.002L914,231.002Z" style="fill:rgb(235,235,235);"/>
            </g>
        </g>
    </g>
</svg>
